<svg width="86" height="67" viewBox="0 0 86 67" fill="none" xmlns="http://www.w3.org/2000/svg" xmlns:xlink="http://www.w3.org/1999/xlink">
<use xlink:href="#stroke0_2080_33" transform="translate(44.4786 31.6826) scale(0.11074) rotate(47.9016)"/>
<use xlink:href="#stroke0_2080_33" transform="translate(37.5844 52.8196) scale(0.113649) rotate(-101.184)"/>
<use xlink:href="#stroke0_2080_33" transform="translate(37.0881 37.4049) scale(0.103316) rotate(-62.489)"/>
<use xlink:href="#stroke0_2080_33" transform="translate(60.0752 14.7753) scale(0.0987468) rotate(64.7301)"/>
<use xlink:href="#stroke0_2080_33" transform="translate(71.4258 16.5075) scale(0.0970414) rotate(110.256)"/>
<use xlink:href="#stroke0_2080_33" transform="translate(52.9327 34.3752) scale(0.0948795) rotate(-118.828)"/>
<use xlink:href="#stroke0_2080_33" transform="translate(66.3158 34.0011) scale(0.111724) rotate(158.639)"/>
<use xlink:href="#stroke0_2080_33" transform="translate(60.3242 29.3049) scale(0.0959533) rotate(117.232)"/>
<use xlink:href="#stroke0_2080_33" transform="translate(36.4012 27.6077) scale(0.0961652) rotate(9.9032)"/>
<use xlink:href="#stroke0_2080_33" transform="translate(48.6687 46.6604) scale(0.102276) rotate(170.953)"/>
<use xlink:href="#stroke0_2080_33" transform="translate(27.5715 18.2318) scale(0.109106) rotate(25.3873)"/>
<use xlink:href="#stroke0_2080_33" transform="translate(42.7594 20.1769) scale(0.115051) rotate(111.887)"/>
<use xlink:href="#stroke0_2080_33" transform="translate(29.4578 33.9922) scale(0.112545) rotate(-159.054)"/>
<use xlink:href="#stroke0_2080_33" transform="translate(42.204 12.6587) scale(0.111214) rotate(104.14)"/>
<use xlink:href="#stroke0_2080_33" transform="translate(27.6168 11.7216) scale(0.115342) rotate(21.5784)"/>
<use xlink:href="#stroke0_2080_33" transform="translate(51.4215 30.034) scale(0.0972878) rotate(122.28)"/>
<use xlink:href="#stroke0_2080_33" transform="translate(54.3391 46.7592) scale(0.112861) rotate(160.131)"/>
<use xlink:href="#stroke0_2080_33" transform="translate(32.2351 21.3166) scale(0.111083) rotate(36.9096)"/>
<use xlink:href="#stroke0_2080_33" transform="translate(32.5978 44.4011) scale(0.0984419) rotate(-151.468)"/>
<use xlink:href="#stroke0_2080_33" transform="translate(37.1979 32.5862) scale(0.109012) rotate(155.904)"/>
<use xlink:href="#stroke0_2080_33" transform="translate(8.42907 38.6646) scale(0.111836) rotate(-106.556)"/>
<use xlink:href="#stroke0_2080_33" transform="translate(23.2095 18.2222) scale(0.110424) rotate(63.155)"/>
<use xlink:href="#stroke0_2080_33" transform="translate(9.71294 35.6876) scale(0.0943956) rotate(-34.7041)"/>
<use xlink:href="#stroke0_2080_33" transform="translate(41.8543 51.0791) scale(0.113593) rotate(162.85)"/>
<use xlink:href="#stroke0_2080_33" transform="translate(24.4567 58.9203) scale(0.10851) rotate(-94.3792)"/>
<use xlink:href="#stroke0_2080_33" transform="translate(50.7231 38.5334) scale(0.105635) rotate(81.142)"/>
<use xlink:href="#stroke0_2080_33" transform="translate(36.5301 56.978) scale(0.108915) rotate(-83.6299)"/>
<use xlink:href="#stroke0_2080_33" transform="translate(45.1628 28.5034) scale(0.111267) rotate(11.4124)"/>
<use xlink:href="#stroke0_2080_33" transform="translate(58.256 22.8597) scale(0.0938573) rotate(44.8991)"/>
<use xlink:href="#stroke0_2080_33" transform="translate(58.865 43.6427) scale(0.0967705) rotate(-122.912)"/>
<use xlink:href="#stroke0_2080_33" transform="translate(50.3287 26.8582) scale(0.11069) rotate(-56.9186)"/>
<use xlink:href="#stroke0_2080_33" transform="translate(74.6589 28.8506) scale(0.108476) rotate(-178.029)"/>
<use xlink:href="#stroke0_2080_33" transform="translate(69.4332 12.9389) scale(0.0963695) rotate(102.453)"/>
<use xlink:href="#stroke0_2080_33" transform="translate(41.8853 17.0256) scale(0.0947999) rotate(-12.6752)"/>
<use xlink:href="#stroke0_2080_33" transform="translate(35.1466 33.0763) scale(0.0980111) rotate(-61.6538)"/>
<use xlink:href="#stroke0_2080_33" transform="translate(59.5818 35.1675) scale(0.10149) rotate(162.396)"/>
<use xlink:href="#stroke0_2080_33" transform="translate(37.968 26.8178) scale(0.106938) rotate(-60.996)"/>
<use xlink:href="#stroke0_2080_33" transform="translate(65.9566 6.79851) scale(0.100082) rotate(79.2472)"/>
<use xlink:href="#stroke0_2080_33" transform="translate(69.5808 25.9221) scale(0.10439) rotate(-163.61)"/>
<use xlink:href="#stroke0_2080_33" transform="translate(66.8612 22.8261) scale(0.0949286) rotate(-126.908)"/>
<use xlink:href="#stroke0_2080_33" transform="translate(74.2011 0.914908) scale(0.09382) rotate(45.7693)"/>
<use xlink:href="#stroke0_2080_33" transform="translate(63.513 11.9874) scale(0.0999423) rotate(-7.13794)"/>
<use xlink:href="#stroke0_2080_33" transform="translate(76.8885 12.7263) scale(0.114757) rotate(58.4878)"/>
<use xlink:href="#stroke0_2080_33" transform="translate(60.8554 22.9454) scale(0.100223) rotate(9.82022)"/>
<use xlink:href="#stroke0_2080_33" transform="translate(74.8901 51.2402) scale(0.113962) rotate(177.671)"/>
<use xlink:href="#stroke0_2080_33" transform="translate(45.2612 33.0091) scale(0.112922) rotate(-1.93877)"/>
<use xlink:href="#stroke0_2080_33" transform="translate(48.4761 59.3206) scale(0.0937286) rotate(-131.976)"/>
<use xlink:href="#stroke0_2080_33" transform="translate(51.9187 60.6425) scale(0.112547) rotate(-173.77)"/>
<use xlink:href="#stroke0_2080_33" transform="translate(25.0576 58.0985) scale(0.101477) rotate(-90.1743)"/>
<use xlink:href="#stroke0_2080_33" transform="translate(49.7252 36.0833) scale(0.115056) rotate(116.747)"/>
<use xlink:href="#stroke0_2080_33" transform="translate(42.6849 20.2643) scale(0.109539) rotate(78.6272)"/>
<use xlink:href="#stroke0_2080_33" transform="translate(21.1011 15.84) scale(0.110164) rotate(-9.98504)"/>
<use xlink:href="#stroke0_2080_33" transform="translate(14.2125 18.1518) scale(0.111703) rotate(-46.8377)"/>
<use xlink:href="#stroke0_2080_33" transform="translate(29.6846 -0.631122) scale(0.109175) rotate(66.5846)"/>
<use xlink:href="#stroke0_2080_33" transform="translate(24.7903 27.962) scale(0.114042) rotate(-169.207)"/>
<use xlink:href="#stroke0_2080_33" transform="translate(13.1627 7.32698) scale(0.0983386) rotate(47.1506)"/>
<use xlink:href="#stroke0_2080_33" transform="translate(17.7723 13.8047) scale(0.114085) rotate(66.9844)"/>
<use xlink:href="#stroke0_2080_33" transform="translate(18.188 47.9921) scale(0.0956607) rotate(-157.241)"/>
<use xlink:href="#stroke0_2080_33" transform="translate(30.0177 40.183) scale(0.0940546) rotate(128.777)"/>
<use xlink:href="#stroke0_2080_33" transform="translate(6.56488 49.9638) scale(0.112313) rotate(-58.4981)"/>
<use xlink:href="#stroke0_2080_33" transform="translate(41.2229 43.718) scale(0.113196) rotate(101.661)"/>
<use xlink:href="#stroke0_2080_33" transform="translate(27.2546 43.4055) scale(0.105961) rotate(15.1609)"/>
<use xlink:href="#stroke0_2080_33" transform="translate(40.1439 72.8961) scale(0.101669) rotate(-132.234)"/>
<use xlink:href="#stroke0_2080_33" transform="translate(58.2574 61.8903) scale(0.104309) rotate(167.74)"/>
<use xlink:href="#stroke0_2080_33" transform="translate(66.5708 53.3955) scale(0.112529) rotate(152.393)"/>
<use xlink:href="#stroke0_2080_33" transform="translate(70.8942 49.182) scale(0.107241) rotate(158.413)"/>
<use xlink:href="#stroke0_2080_33" transform="translate(76.1009 37.6621) scale(0.104066) rotate(129.551)"/>
<path d="M78.8481 30.0124C77.3542 32.0176 76.9512 34.0826 74.939 36.3765C72.9139 38.6225 72.2695 38.6497 70.0251 41.2186C67.7565 43.7843 65.0629 45.9149 64.0892 47.0902C63.1129 48.2646 62.5981 47.9558 61.0924 49.4885C59.5738 51.022 58.5324 51.8243 56.9851 52.8935C55.4534 53.9741 50.8558 57.4963 49.3239 58.9397C47.8041 60.4048 45.6622 61.4854 44.4085 62.2463C44.019 62.4838 43.6803 62.6668 43.4579 62.7663C43.361 62.8102 43.3023 62.8044 43.2814 62.7738C43.2814 62.7738 43.2814 62.7737 43.2813 62.7737C43.2558 62.7352 43.289 62.6584 43.3984 62.577C43.9536 62.1665 44.8337 61.4551 45.7079 60.6072C47.4097 58.9615 47.8239 59.0895 50.2212 57.0173C52.6051 54.9305 53.8794 53.4844 56.8393 51.2316C59.7895 48.9437 59.8603 47.7683 63.9963 44.527C68.0806 41.2195 67.8531 40.1818 71.174 36.2457C74.5148 32.3046 78.5012 27.1761 79.4684 24.2885C80.5389 21.5392 81.3233 17.2851 78.5363 14.4046C77.881 13.6885 77.053 13.0714 76.0076 12.5138C72.942 10.8541 69.0807 10.2306 65.5532 10.3097C60.7785 10.1709 54.3304 12.969 51.9115 15.0328C49.4463 17.0022 48.8545 17.6296 47.3774 20.2881C46.5622 21.8402 45.6834 24.0788 45.2185 26.1027C44.9932 27.1253 44.8385 26.8859 44.8944 25.8129C45.0007 24.2398 45.4778 23.0309 45.5738 22.199C45.7987 20.5405 45.9859 19.7564 47.3439 18.1499C48.7356 16.5996 49.04 15.5581 49.9694 14.7398C50.9919 14.059 50.8234 13.8219 56.1246 10.7039C61.6527 7.89751 65.307 7.91996 67.6388 7.87439C69.7525 7.83744 73.914 8.73311 77.0901 10.5123C77.5244 10.744 77.9275 10.9803 78.3002 11.2164C79.977 12.1961 82.4199 14.7127 82.7886 17.8706C83.23 20.9466 82.2474 23.6988 81.7687 25.177C80.6765 28.1551 80.2807 27.9745 78.8481 30.0124Z" fill="#505050"/>
<path d="M8.67542 34.3017C9.69962 36.5478 11.539 37.6219 13.4128 39.9059C14.0515 40.6732 14.5158 41.2608 14.9384 41.7984C15.6811 42.7451 16.3043 43.5388 18.1706 44.8779C21.0199 46.9019 23.8084 49.0776 25.2302 49.765C26.657 50.4473 26.485 51.0305 28.4522 52.0936C30.4239 53.1513 31.5429 53.9059 33.1338 55.059C34.7075 56.2177 39.8839 59.3253 41.9225 60.1319C42.9136 60.5304 43.9648 61.1314 44.8835 61.6806C45.2991 61.9319 45.8109 62.2427 46.1871 62.4365C46.2444 62.4641 46.2851 62.4804 46.2833 62.4854C46.2842 62.4881 46.2806 62.4792 46.2118 62.4913C46.1787 62.4991 46.1129 62.518 46.054 62.591C45.9936 62.6639 45.9867 62.7673 45.9985 62.8155C46.0266 62.9186 46.0398 62.905 46.0399 62.9107C46.0432 62.9139 46.0454 62.9155 46.0468 62.9161C46.0523 62.9179 46.0452 62.9058 46.0308 62.8896C45.9301 62.791 45.8968 62.7577 45.8092 62.6831C45.6123 62.5223 45.4969 62.4285 45.3398 62.3128C45.2458 62.2436 45.1402 62.1671 45.0487 62.0994C44.977 62.0442 44.9059 61.989 44.8364 61.9346C44.6972 61.8257 44.5646 61.72 44.4446 61.622C44.3426 61.5387 44.3068 61.4732 44.3263 61.4416C44.3263 61.4416 44.3263 61.4416 44.3263 61.4415C44.3499 61.4019 44.4592 61.4149 44.6031 61.496C44.7773 61.5942 44.9608 61.6956 45.1421 61.7929C45.3251 61.8911 45.6081 62.0505 45.8018 62.1532C45.9012 62.2058 46.0792 62.3122 46.1805 62.3706C46.2082 62.3868 46.2344 62.4021 46.259 62.4167C46.3082 62.45 46.3509 62.48 46.3878 62.5086C46.4306 62.5486 46.4376 62.5276 46.5108 62.6429C46.5273 62.6793 46.5611 62.7498 46.524 62.8596C46.4836 62.9719 46.3776 63.0198 46.3301 63.0289C46.2309 63.0488 46.1824 63.0281 46.1843 63.032C46.1632 63.0301 46.1431 63.0273 46.1225 63.0237C45.9286 62.9824 45.7996 62.9406 45.6348 62.8898C45.4418 62.8244 45.3305 62.7938 45.1629 62.738C42.7957 61.9235 42.726 61.4842 39.7228 60.0408C36.7446 58.5859 34.8358 57.8764 31.5726 55.7172C28.3233 53.5332 27.0805 53.8386 22.6955 50.4123C18.4025 46.894 17.3373 47.4777 13.0053 43.7638C12.9911 43.7504 12.9769 43.737 12.9626 43.7235C8.65162 39.8869 5.32847 33.2395 4.67605 29.763C3.7487 26.4534 3.66892 21.205 6.48691 16.9155C9.09019 12.6105 14.4747 8.7377 19.9449 8.01892C25.4244 6.90232 32.9626 9.48212 35.6038 11.7096C38.3437 13.7927 38.9204 14.4188 41.1719 16.8022C42.469 18.2351 43.8525 20.4332 44.6375 22.4958C45.0388 23.5555 44.7784 23.3847 44.1992 22.4325C43.3551 21.07 42.7103 19.9339 42.074 19.3706C40.8209 18.3073 40.2811 17.8329 39.0861 16.2101C37.8228 14.5795 36.6946 14.4064 35.817 13.6801C34.8542 13.099 35.2646 12.1972 29.5578 10.4655C23.7234 9.17341 20.4463 10.2794 18.3751 10.8758C16.2847 11.4605 11.8812 13.3958 9.73194 16.3435C8.62137 17.729 7.23455 20.1024 6.76806 22.6638C6.24742 25.2095 6.63576 27.7979 7.06799 29.1634C8.01592 31.9249 7.76019 32.0382 8.67542 34.3017Z" fill="#505050"/>
<defs>
<g id="stroke0_2080_33" data-figma-scatter-ref="stroke0_2080_33_ref" data-figma-scatter="f0.37_w0_aj180_sj0.11_r0_s0_sw21">
<path d="M80.0282 194.99C82.0832 192.139 84.467 192.9 84.7821 196.508C85.1641 200.899 83.6335 202.842 81.0526 201.242C79.8526 200.498 79.0214 200.396 79.0214 200.992C79.0212 201.546 78.3463 202 77.5213 202C76.6964 202 76.0213 201.55 76.0213 201C76.0213 200.45 75.052 200 73.868 200C71.7156 200 71.7157 200 73.9491 198.062C75.1781 196.997 76.718 196.33 77.37 196.58C78.022 196.83 79.2174 196.115 80.0282 194.99ZM101.021 193.5C103.959 189.96 107.009 193.926 105.617 199.475C104.761 202.885 92.0217 202.317 92.0214 198.87C92.0214 197.047 94.8281 195 97.327 195C98.674 195 100.336 194.325 101.021 193.5ZM117.521 191C117.796 191 118.021 191.225 118.021 191.5C118.021 191.775 117.796 192 117.521 192C117.246 192 117.021 191.775 117.021 191.5C117.021 191.225 117.246 191 117.521 191ZM119.021 187C119.754 187 120.054 187.3 119.688 187.667C119.321 188.033 118.721 188.033 118.354 187.667C117.989 187.3 118.289 187 119.021 187ZM127.254 184C129.035 181.149 132.021 181.393 132.021 184.391C132.021 186.937 125.678 188.798 123.571 186.869C122.998 186.345 123.294 186 124.313 186C125.243 186 126.567 185.1 127.254 184ZM90.4423 150.25C90.3463 147.548 90.4477 147.528 93.0106 149.722C94.5516 151.042 95.0214 152.672 95.0214 156.703C95.0214 161.478 95.2515 162.02 97.5214 162.589C100.158 163.251 100.736 164.441 98.954 165.542C98.366 165.905 98.1087 166.785 98.3827 167.498C99.0954 169.356 94.0089 170.337 84.1991 170.232C77.2394 170.158 75.562 170.459 73.9491 172.072C72.8894 173.132 72.4716 174 73.0213 174C73.5714 174 74.0213 175.8 74.0213 178C74.0213 182.079 76.1657 183.673 77.3837 180.5C77.7177 179.628 79.2149 179 80.9589 179C83.2145 179 83.8156 179.372 83.3837 180.5C82.6237 182.48 86.8038 182.48 89.4188 180.5C91.6407 178.818 93.0214 179.375 93.0214 181.952C93.0213 184.232 91.1102 185 85.4393 185C83.0094 185 81.0214 185.45 81.0214 186C81.0214 186.556 78.3544 187 75.0213 187C71.4662 187 69.0224 186.569 69.0213 185.941C69.0213 185.359 68.5865 185.151 68.0555 185.479C66.817 186.244 59.0221 182.3 59.0213 180.908C59.0213 179.047 61.8086 177 64.3436 177C67.3655 177 68.4751 174.597 66.4071 172.529C65.0352 171.157 65.0915 171 66.9501 171C68.089 171 69.0212 170.415 69.0213 169.701C69.0213 168.805 70.1075 168.528 72.5184 168.81C77.4554 169.386 80.6955 168.355 81.3085 166.011C81.9465 163.57 83.752 163.362 84.1981 165.679C84.4931 167.213 84.6786 167.2 86.3505 165.528C87.3565 164.523 89.3758 163.655 90.8378 163.6C92.5965 163.534 93.6183 162.864 93.8573 161.62C94.3103 159.26 92.2292 157.91 89.2792 158.65C85.7483 159.536 82.0214 158.221 82.0214 156.088C82.0214 153.992 84.2725 152.671 88.0214 152.569C89.9514 152.516 90.5033 151.987 90.4423 150.25ZM49.9149 174C52.0126 174 53.3331 176.268 52.0282 177.628C51.5672 178.108 51.0403 179.621 50.8563 180.992C50.5339 183.385 43.0223 185.071 43.0213 182.75C43.0213 182.337 42.1355 182 41.0526 182C39.7136 182 39.2681 181.52 39.659 180.5C39.976 179.675 40.8627 179 41.6287 179C42.4696 179 43.0213 177.948 43.0213 176.345C43.0213 173.836 43.1226 173.781 44.8504 175.345C47.1174 177.397 48.0213 177.441 48.0213 175.5C48.0213 174.675 48.8739 174 49.9149 174ZM134.021 181C134.754 181 135.054 181.3 134.688 181.667C134.321 182.033 133.721 182.033 133.354 181.667C132.989 181.3 133.289 181 134.021 181ZM140.972 147.526C144.544 145.678 148.028 145.542 148.007 147.25C147.984 149.087 146.856 150.33 143.771 151.921C142.26 152.7 141.022 153.882 141.021 154.547C141.021 155.211 140.303 156.352 139.424 157.081C138.36 157.965 137.984 159.424 138.299 161.454C138.93 165.52 137.737 168.476 135.416 168.602C129.216 168.936 129.022 169.016 129.007 171.25C128.978 175.491 122.61 178.274 117.006 176.495C113.233 175.298 114.831 171.558 119.271 171.19C122.209 170.946 123.021 170.459 123.021 168.94C123.021 167.874 123.471 167 124.021 167C124.571 167 125.021 166.325 125.021 165.5C125.021 164.007 126.489 163.614 130.771 163.961C132.009 164.061 133.021 163.691 133.021 163.139C133.022 162.587 133.929 161.847 135.037 161.495C136.145 161.144 136.808 160.465 136.514 159.986C135.894 158.983 130.085 159.193 128.355 160.281C127.676 160.708 125.887 159.711 124.07 157.895C120.951 154.775 120.95 154.775 119.032 156.987C117.428 158.837 116.286 159.142 112.067 158.85C109.291 158.657 107.02 158.837 107.02 159.25C107.021 160.162 103.607 160.252 102.718 159.363C101.128 157.773 106.192 153 109.468 153C111.287 153 113.34 152.321 114.028 151.491C114.717 150.661 117.066 149.697 119.246 149.348C121.426 149 123.729 148.12 124.365 147.395C125.986 145.545 127.357 145.682 126.614 147.619C126.103 148.95 126.486 149.127 128.758 148.613C136.282 146.909 138.021 146.774 138.021 147.895C138.021 148.687 138.952 148.57 140.972 147.526ZM153.521 162C154.498 160.42 159.021 160.836 159.685 162.567C161.907 168.357 149.083 172.04 144.467 166.939C142.122 164.348 143.706 163.038 149.213 163.015C151.243 163.007 153.181 162.55 153.521 162ZM167.271 58.6982C168.488 58.2423 171.021 60.5889 171.021 62.1719C171.021 62.6059 169.783 63.2581 168.271 63.6191C166.759 63.9802 164.964 64.714 164.284 65.25C163.603 65.7847 162.349 65.9557 161.495 65.6279C160.11 65.0959 157.652 66.0307 154.572 68.2607C149.415 71.9944 148.081 73.289 148.573 74.084C149.299 75.259 154.199 74.1556 155.53 72.5176C156.141 71.7666 157.876 71.4725 159.917 71.7715C162.376 72.1324 163.543 71.8209 164.211 70.627C164.857 69.4732 165.63 69.2455 166.824 69.8584C167.758 70.3384 169.043 70.5415 169.68 70.3115C170.317 70.0817 171.131 70.3683 171.488 70.9473C172.418 72.4512 177.186 72.2473 181.301 70.5283C184.272 69.2863 185.001 69.2699 185.957 70.4219C188.602 73.6088 180.833 76.985 170.831 76.9941C167.701 76.9971 164.861 77.45 164.521 78C163.567 79.5429 159.062 79.1828 157.301 77.4219C156.298 76.419 154.959 76.0898 153.623 76.5186C152.467 76.8896 150.734 77.2465 149.771 77.3105C148.809 77.3755 148.022 77.7298 148.021 78.0977C148.021 78.7207 144.784 80.0592 142.535 80.3652C141.992 80.4397 141.397 81.2903 141.211 82.2549C140.803 84.3738 145.096 86.3849 146.271 84.624C146.798 83.834 147.311 83.946 147.996 85C148.717 86.1107 148.522 86.5906 147.246 86.8516C141.95 87.9335 138.246 94.8788 143.282 94.2832C148.467 93.6692 148.46 95.4099 143.256 100.85C141.265 102.931 128.022 103.451 128.021 101.448C128.021 99.4674 119.358 99.685 118.589 101.685C118.312 102.408 118.521 103 119.053 103C119.586 103 120.021 104.152 120.021 105.559C120.021 107.111 119.604 107.86 118.959 107.461C118.374 107.1 117.107 107.517 116.145 108.388C115.182 109.259 112.737 110.091 110.711 110.236C106.28 110.553 105.926 112.303 109.955 113.972C112.001 114.82 112.703 115.665 112.28 116.767C111.849 117.889 112.113 118.179 113.188 117.766C116.345 116.555 117.579 118.725 114.969 120.897C113.623 122.017 113.085 122.948 113.771 122.967C114.459 122.985 115.021 122.65 115.021 122.222C115.022 121.793 116.934 121.554 119.271 121.69C121.609 121.825 124.914 121.556 126.616 121.092C131.4 119.786 133.335 121.293 131.338 124.772C130.017 127.074 129.036 127.537 125.167 127.687C122.716 127.781 120.547 128.31 120.235 128.877L120.186 128.986C119.88 129.549 117.777 130 115.406 130C112.282 130 110.778 130.468 110.354 131.574C109.938 132.658 109.013 132.964 107.386 132.555C104.689 131.878 104.278 133.138 106.574 135.044C108.549 136.683 113.959 136.72 114.96 135.101C116.088 133.275 120.908 131 123.649 131C124.968 131 126.83 130.52 127.785 129.932C129.084 129.134 130.529 129.307 133.521 130.619C139.714 133.334 143.098 133.227 146.282 130.216C148.245 128.36 150.053 127.633 152.532 127.703C154.904 127.77 156.021 127.354 156.021 126.401C156.021 124.537 157.593 124.634 161.117 126.716C165.249 129.157 164.577 132.915 159.886 133.59C158.586 133.777 155.721 134.43 153.521 135.04C151.322 135.651 148.743 136.145 147.792 136.139C146.84 136.132 145.8 136.549 145.482 137.064C145.162 137.579 142.117 138.002 138.713 138.004C134.099 138.007 131.268 138.644 127.602 140.504C124.896 141.877 121.071 143.003 119.102 143.006C117.133 143.01 114.372 143.612 112.967 144.345C109.233 146.294 99.6114 146.415 98.0477 144.532C97.3587 143.701 96.4331 143.245 95.9921 143.518C95.5499 143.79 94.0262 143.572 92.6053 143.032C87.7505 141.186 90.4024 135.523 96.4442 134.834C102.172 134.18 100.575 131.931 93.079 130.097C91.7351 129.769 90.7612 129.1 90.9139 128.612C91.9239 125.394 82.3592 125.104 78.9852 128.25C77.4643 129.668 75.1616 130.56 72.7547 130.663C68.2919 130.853 66.0215 132.42 66.0213 135.308C66.0213 136.443 65.0207 138.436 63.7977 139.738C62.457 141.166 61.9707 142.381 62.5731 142.803C64.8131 144.366 64.0551 153.068 61.6961 152.871C57.6384 152.532 56.0213 152.996 56.0213 154.5C56.0213 155.325 56.6489 156 57.4149 156C58.1808 156 59.0667 156.675 59.3836 157.5C59.7197 158.377 61.2183 159 62.9901 159C65.1151 159 66.0213 159.483 66.0213 160.617C66.0213 161.802 65.3542 162.106 63.5213 161.755C62.1468 161.492 61.0219 161.742 61.0213 162.31C61.0213 165.005 57.5881 167 52.9491 167C50.3305 167 48.0235 167.494 47.8221 168.098C47.3521 169.508 36.6779 169.469 36.2069 168.055C36.0137 167.475 35.0064 167 33.9696 167C32.6947 167 32.273 166.508 32.6668 165.482C32.9868 164.648 33.7606 164.026 34.3856 164.101C37.3785 164.46 38.1349 163.932 37.4989 161.928C36.781 159.665 39.3636 156 41.6766 156C42.4165 156 43.0213 155.55 43.0213 155C43.0213 154.45 44.4844 153.947 46.2713 153.882C49.5213 153.763 49.5213 153.763 46.5213 153.057C44.8714 152.669 43.0931 152.722 42.5711 153.176C40.951 154.581 36.0213 154.135 36.0213 152.583C36.0213 151.569 37.3124 151.167 40.5682 151.167C45.3119 151.167 48.021 149.766 48.0213 147.315C48.0213 146.522 48.8084 145.973 49.7713 146.093C50.7343 146.214 52.8324 145.776 54.4344 145.119C56.4454 144.295 57.6686 144.247 58.3846 144.963C59.7096 146.288 63.0213 146.314 63.0213 145C63.0213 144.45 62.5713 144 62.0213 144C61.4714 144 61.0213 143.142 61.0213 142.094C61.0213 140.76 60.4886 140.328 59.2469 140.651C58.2709 140.907 56.1652 140.437 54.5682 139.609C52.9713 138.78 51.3375 138.305 50.9364 138.553C50.5354 138.8 50.4186 138.197 50.6766 137.212C50.9337 136.227 52.1299 134.989 53.3338 134.461C54.6816 133.869 55.6455 132.422 55.8436 130.691C56.2416 127.22 59.5662 127.304 59.4422 130.781C59.3983 132.002 59.7354 133 60.1922 133C62.0592 133 61.023 126.072 58.993 124.985C55.9883 123.377 57.5376 122.047 61.6395 122.713C63.6094 123.033 65.5148 122.89 65.8719 122.397C66.2299 121.904 67.4213 121.001 68.5213 120.391C71.0413 118.995 71.5844 111.153 69.2235 110.247C67.1525 109.453 70.5427 107 73.7128 107C76.2165 107 76.6535 106.032 74.9276 104.306C74.1816 103.56 72.7459 103.513 70.4081 104.159C67.7615 104.89 66.6467 104.768 65.5028 103.624C62.8668 100.988 63.8325 99.4139 67.7713 99.9248C68.4593 100.015 69.0213 99.3929 69.0213 98.5439C69.0214 96.562 72.2572 96.5534 76.0712 98.5264C79.7171 100.411 80.1676 98.607 76.9208 95.1221C74.7218 92.7611 75.0139 90.9186 77.2889 92.8066C78.2788 93.6275 78.9043 93.4159 79.8212 91.9492C80.4902 90.8772 82.1336 90 83.4706 90C86.5075 90 87.4242 88.6208 86.0692 86.0898C84.7305 83.5879 87.1019 80.9471 90.0038 81.7061C91.3795 82.0649 92.0213 81.745 92.0214 80.7002C92.0214 79.8572 92.5844 78.9657 93.2714 78.7197C96.0363 77.7327 92.8866 76.8469 88.9667 77.5088C86.1857 77.9788 84.6213 78.8142 84.3133 79.9922C83.7791 82.033 79.5802 82.9608 73.3114 82.4238C70.9954 82.2248 68.8318 82.4992 68.5028 83.0322C67.7447 84.2562 58.3321 84.3097 57.5799 83.0938C57.2719 82.5957 56.1194 82.4229 55.0204 82.7109C53.9035 83.0029 53.0215 82.741 53.0213 82.1172C53.0213 81.5023 52.3737 81.0002 51.5809 81C50.788 81 49.8586 80.5452 49.5145 79.9893C49.1255 79.3593 50.5264 79.0406 53.2342 79.1426C55.623 79.2336 58.548 78.7882 59.7342 78.1543C60.9192 77.5193 63.2699 77 64.9559 77C67.0146 76.9999 68.0213 76.5069 68.0213 75.5C68.0213 73.802 69.5873 73.4891 70.5213 75C71.8243 77.108 75.9602 76.089 76.6102 73.5C76.9552 72.125 77.6397 71 78.1298 71C78.6206 70.9996 79.0214 69.8748 79.0214 68.5C79.0214 66.607 79.5675 65.9727 81.2714 65.8877C82.5094 65.8267 85.028 65.6036 86.87 65.3916C89.1228 65.1337 91.0236 65.6433 92.6835 66.9492C95.3324 69.0321 100.766 69.0311 102.055 66.9463C103.148 65.1793 104.504 67.955 104.159 71.249C103.914 73.585 104.243 74 106.34 74C109.042 74.0001 110.652 76.4875 108.727 77.6904C107.241 78.6203 105.761 78.8613 100.021 79.1123C95.8184 79.2953 92.0214 81.2153 92.0214 83.1553C92.0225 84.2789 98.7503 84.2458 99.4472 83.1191C100.475 81.4561 104.898 81.156 104.27 82.793C103.822 83.9609 104.37 84.1755 106.861 83.8096C110.424 83.2866 111.271 85.6074 108.521 88.3574C107.697 89.1823 107.022 90.3387 107.021 90.9287C107.021 91.5177 106.346 92 105.521 92C104.696 92.0001 104.021 92.45 104.021 93C104.021 93.55 103.121 94 102.021 94C98.8146 94.0001 99.7566 96.3428 103.766 98.3418C107.462 100.185 107.463 100.185 109.628 97.4688C111.861 94.6691 120.02 92.8083 120.021 95.0996C120.021 95.6726 120.772 96.8916 121.687 97.8086C123.241 99.3626 123.309 99.1999 122.697 95.3779C122.056 91.3642 122.097 91.2921 124.695 91.7891C126.853 92.201 127.23 91.988 126.717 90.6484C126.235 89.3924 126.671 89 128.553 89C129.911 89 131.021 88.4978 131.021 87.8828C131.022 87.227 132.068 86.967 133.558 87.252C135.888 87.697 135.969 87.599 134.558 86.0391C132.382 83.6351 132.523 79.7575 134.771 80.1904C135.734 80.3764 136.521 81.0458 136.521 81.6797C136.521 82.3137 136.859 83.171 137.271 83.583C137.683 83.996 138.021 83.133 138.021 81.667C138.021 78.608 132.756 77.642 131.659 80.5C130.587 83.2948 129.421 82.0189 129.832 78.5C130.057 76.5754 129.797 75.0006 129.254 75C127.766 75 125.766 77.7755 126.451 78.8867C126.783 79.4227 126.536 80.1822 125.903 80.5732C125.092 81.0748 124.896 80.3017 125.242 77.9453C125.885 73.5643 123.102 70.0623 120.804 72.3613C118.827 74.3381 110.494 75.5717 109.54 74.0293C108.534 72.4013 109.099 72.079 113.691 71.666C115.908 71.466 118.353 70.8992 119.123 70.4062C123.4 67.6685 124.853 67.2308 125.971 68.3486C126.817 69.1945 127.32 69.1349 127.951 68.1143C128.416 67.3605 129.298 67.0531 129.909 67.4307C130.521 67.8086 131.584 67.7572 132.271 67.3164C133.976 66.2214 138.277 66.1283 139.622 67.1553C140.938 68.1598 145.421 67.6725 149.403 66.0928C150.988 65.4638 153.126 65.2161 154.153 65.542C155.181 65.8679 156.021 65.6551 156.021 65.0674C156.021 64.4804 156.677 64 157.477 64C158.276 64 160.001 62.93 161.309 61.6221C163.447 59.4841 163.798 59.4091 164.795 60.8721C165.815 62.3689 165.909 62.3659 165.963 60.833C165.996 59.9171 166.585 58.9564 167.271 58.6982ZM74.5213 166C74.7963 166 75.0213 166.225 75.0213 166.5C75.0213 166.775 74.7963 167 74.5213 167C74.2464 167 74.0213 166.775 74.0213 166.5C74.0213 166.225 74.2464 166 74.5213 166ZM22.5213 158C22.7963 158 23.0213 158.225 23.0213 158.5C23.0213 158.775 22.7963 159 22.5213 159C22.2464 159 22.0213 158.775 22.0213 158.5C22.0213 158.225 22.2464 158 22.5213 158ZM170.021 158C170.754 158 171.054 158.3 170.688 158.667C170.321 159.033 169.721 159.033 169.354 158.667C168.989 158.3 169.289 158 170.021 158ZM20.5213 156C20.7963 156 21.0213 156.225 21.0213 156.5C21.0213 156.775 20.7963 157 20.5213 157C20.2464 157 20.0213 156.775 20.0213 156.5C20.0213 156.225 20.2464 156 20.5213 156ZM66.0213 156C66.0213 155.267 66.3214 154.967 66.6883 155.333C67.0543 155.7 67.0543 156.3 66.6883 156.667C66.3214 157.033 66.0213 156.733 66.0213 156ZM180.384 151.5C181.007 149.876 181.977 149.662 184.439 150.607C187.424 151.752 186.209 154 182.604 154C180.725 154 178.984 154.563 178.735 155.25C178.373 156.249 177.854 156.247 176.152 155.242C174.885 154.493 174.021 154.392 174.021 154.992C174.021 155.546 173.571 156 173.021 156C172.471 156 172.021 155.325 172.021 154.5C172.021 153.424 173.121 153 175.915 153C178.453 153 180.008 152.478 180.384 151.5ZM33.4383 153.079C34.4923 153.036 35.0828 153.272 34.7508 153.604C34.4188 153.936 33.5557 153.972 32.8348 153.683C32.0368 153.364 32.2734 153.127 33.4383 153.079ZM86.5809 149C86.8237 149.001 87.0214 149.45 87.0214 150C87.0214 150.55 86.5446 151 85.9628 151C85.3808 151 85.1814 150.55 85.5214 150C85.8614 149.45 86.3379 149 86.5809 149ZM186.521 148C186.796 148 187.021 148.225 187.021 148.5C187.021 148.775 186.796 149 186.521 149C186.247 149 186.021 148.775 186.021 148.5C186.021 148.225 186.247 148 186.521 148ZM176.021 138.026C178.342 136.486 180.854 136.817 181.917 138.804C183.505 141.772 181.658 143.123 175.417 143.561C165.832 144.232 155.723 146.068 152.702 147.685C151.151 148.516 149.614 148.926 149.285 148.597C148.958 148.269 149.214 148 149.854 148C150.496 148 151.021 147.152 151.021 146.115C151.021 144.123 155.22 140.784 157.295 141.124C158.986 141.402 164.259 139.93 165.736 138.768C166.405 138.243 168.655 138.084 170.736 138.417C172.818 138.749 175.196 138.573 176.021 138.026ZM44.4491 143C46.7509 143 46.9583 143.249 46.0575 144.932C43.9845 148.806 38.0213 148.309 38.0213 144.263C38.0214 142.973 38.3576 142.99 40.4911 144.388C42.5941 145.767 42.8756 145.784 42.3846 144.503C41.9606 143.399 42.5094 143 44.4491 143ZM19.5213 133C21.0333 133 22.0213 133.57 22.0213 134.443C22.0216 135.237 22.9709 136.551 24.1297 137.363C26.8762 139.287 25.6753 141.184 22.2108 140.396C19.5218 139.784 19.5213 139.784 21.7733 141.45C23.0113 142.366 24.4439 142.857 24.9549 142.542C25.4659 142.226 26.1656 142.425 26.5115 142.984C26.8562 143.543 26.4862 144 25.6873 144C24.8884 144 23.995 144.626 23.701 145.39C22.388 148.812 6.97774 145.239 7.03887 141.528C7.06787 139.834 11.3283 136.365 14.2713 135.639C15.7839 135.267 17.0206 134.52 17.0213 133.981C17.0213 133.441 18.1464 133 19.5213 133ZM31.0213 141C32.1323 141 33.0213 141.667 33.0213 142.5C33.0213 143.333 32.1323 144 31.0213 144C29.9104 144 29.0213 143.333 29.0213 142.5C29.0213 141.667 29.9104 141 31.0213 141ZM71.0213 140C71.7543 140 72.0543 140.3 71.6883 140.667C71.3213 141.033 70.7213 141.033 70.3544 140.667C69.9885 140.3 70.2885 140 71.0213 140ZM43.0213 132.016C43.0215 131.392 43.4297 131.134 43.9276 131.442C44.4254 131.751 44.6781 132.789 44.4871 133.751C42.9622 141.463 43.5733 140.91 37.2703 140.291C29.9696 139.575 28.2714 138.677 28.2713 135.532C28.2713 132.725 29.1159 132.417 31.9539 134.19C33.4636 135.132 34.2135 135.085 35.5653 133.964C36.5032 133.185 38.5653 132.683 40.1463 132.849C41.8003 133.023 43.0213 132.669 43.0213 132.016ZM24.5213 133C25.3462 133 26.0211 133.436 26.0213 133.969C26.0213 134.501 25.3463 134.678 24.5213 134.362C23.6963 134.045 23.0213 133.609 23.0213 133.393C23.0222 133.177 23.6969 133 24.5213 133ZM87.9032 132C88.4532 132 89.1813 132.45 89.5214 133C89.8614 133.55 89.6895 134 89.1395 134C88.5895 134 87.8614 133.55 87.5214 133C87.1815 132.45 87.3535 132 87.9032 132ZM53.1004 131.583C53.0574 130.529 53.2938 129.939 53.6258 130.271C53.9574 130.604 53.9938 131.467 53.7049 132.188C53.386 132.985 53.1484 132.748 53.1004 131.583ZM21.0213 128C21.7543 128 22.0543 128.3 21.6883 128.667C21.3213 129.033 20.7213 129.033 20.3543 128.667C19.9884 128.3 20.2885 128 21.0213 128ZM6.52129 127C6.79629 127 7.02129 127.225 7.02129 127.5C7.02129 127.775 6.79629 128 6.52129 128C6.24635 128 6.02129 127.775 6.02129 127.5C6.02129 127.225 6.24635 127 6.52129 127ZM10.4451 125C11.1941 125 12.0666 125.675 12.3836 126.5C12.7216 127.381 12.3964 128 11.5975 128C10.8485 128 9.97599 127.325 9.65899 126.5C9.32113 125.619 9.64639 125 10.4451 125ZM37.6785 115.503C40.9204 113.821 43.955 114.697 45.0731 117.637C45.7831 119.504 46.7119 120 49.4969 120C51.4354 120 53.0208 120.398 53.0213 120.885C53.0213 122.362 48.192 125.084 47.5145 123.989C46.6666 122.616 40.2744 122.743 39.8075 124.142C39.5985 124.77 37.7443 125.386 35.6883 125.51C33.6324 125.635 31.688 126 31.367 126.321C31.0457 126.642 30.1485 126.27 29.3739 125.495C28.599 124.719 27.36 124.317 26.6219 124.6C25.8839 124.883 25.0162 124.428 24.6942 123.589C24.0283 121.854 24.4085 121.543 28.3621 120.596C30.2209 120.151 31.0194 119.438 30.6717 118.531C29.9387 116.619 32.7681 114.347 34.1561 115.735C34.8901 116.469 35.9515 116.399 37.6785 115.503ZM184.021 121C184.021 119.64 190.734 119.725 191.581 121.096C192.871 123.184 189.49 124.908 182.771 125.591C176.33 126.245 176.021 126.179 176.021 124.138C176.021 122.31 176.603 122 180.021 122C182.221 122 184.021 121.55 184.021 121ZM52.2323 116.538C53.8713 114.68 54.0213 114.676 54.0213 116.5C54.0213 117.325 53.3283 118 52.4823 118C51.2105 118 51.1665 117.746 52.2323 116.538ZM107.26 115C106.212 115 105.354 115.675 105.354 116.5C105.354 117.325 105.537 118 105.76 118C105.983 118 106.84 117.325 107.665 116.5C108.998 115.167 108.952 115 107.26 115ZM129.521 117C129.796 117 130.021 117.225 130.021 117.5C130.021 117.775 129.796 118 129.521 118C129.246 118 129.021 117.775 129.021 117.5C129.021 117.225 129.246 117 129.521 117ZM132.021 116.531C132.021 115.637 132.608 115.288 133.521 115.638C134.346 115.955 135.021 116.616 135.021 117.107C135.021 117.598 134.346 118 133.521 118C132.697 118 132.022 117.339 132.021 116.531ZM138.021 115C139.132 115 140.021 115.667 140.021 116.5C140.021 118.183 139.838 118.251 137.603 117.393C136.734 117.059 136.021 116.384 136.021 115.893C136.022 115.402 136.922 115 138.021 115ZM158.472 105.922C160.859 103.606 166.741 105.681 165.675 108.462C165.148 109.835 165.599 110.071 168.25 109.813C170.583 109.587 171.553 109.946 171.792 111.129C172.703 115.626 160.872 118.9 157.273 115.277L156.893 114.867C155.768 113.73 153.976 113 152.262 113C150.495 113 148.996 112.376 148.659 111.5C148.342 110.673 146.858 110 145.352 110C139.858 110 144.837 107.678 151.236 107.257C154.693 107.029 157.95 106.428 158.472 105.922ZM144.021 115C144.754 115 145.054 115.3 144.688 115.667C144.321 116.033 143.721 116.033 143.354 115.667C142.989 115.3 143.289 115 144.021 115ZM14.5213 114C14.7963 114 15.0213 114.225 15.0213 114.5C15.0213 114.775 14.7963 115 14.5213 115C14.2464 115 14.0213 114.775 14.0213 114.5C14.0213 114.225 14.2464 114 14.5213 114ZM58.1004 92.75C58.1534 91.247 58.3688 90.998 58.7508 92C59.0649 92.825 59.8168 93.8314 60.4217 94.2354C61.0993 94.6882 60.8502 94.9754 59.7713 94.9854C58.8084 94.9934 58.0213 95.45 58.0213 96C58.0213 96.55 58.5264 97 59.1434 97C59.9234 97 59.8891 97.4543 59.0321 98.4873C58.3533 99.3053 58.0588 100.655 58.3788 101.487C59.1494 103.498 57.1364 103.414 54.8446 101.339C53.8349 100.426 52.7452 99.9443 52.4207 100.268C52.0967 100.592 52.7746 101.664 53.9266 102.651C56.7922 105.104 56.6754 108 53.7108 108C52.4389 108 50.4328 108.9 49.2518 110C46.5028 112.561 43.8433 112.547 42.2293 109.961C41.5295 108.84 40.562 108.166 40.0799 108.464C38.6249 109.363 36.2517 107.986 35.7137 105.931C35.155 103.791 37.5598 103.156 38.2928 105.25C38.6168 106.177 39.2189 106.07 40.6258 104.834C41.8438 103.763 43.5007 103.357 45.2596 103.698C47.2355 104.081 48.1755 103.761 48.6414 102.547C49.5463 100.188 47.266 98.0004 45.9959 100.008C45.2579 101.175 45.0517 100.954 45.0487 99C45.0437 95.613 52.1129 91.9507 55.0799 93.8037C57.7037 95.4426 58.0094 95.3359 58.1004 92.75ZM101.521 110C101.246 110 101.021 110.225 101.021 110.5C101.021 110.775 101.246 111 101.521 111C101.796 111 102.021 110.775 102.021 110.5C102.021 110.225 101.796 110 101.521 110ZM163.521 110C163.246 110 163.021 110.225 163.021 110.5C163.021 110.775 163.246 111 163.521 111C163.796 111 164.021 110.775 164.021 110.5C164.021 110.225 163.796 110 163.521 110ZM27.8192 108.278C28.3472 105.513 29.1083 105.44 32.1063 107.868C34.4133 109.735 34.4133 109.735 30.8983 110.146C27.6927 110.52 27.4223 110.356 27.8192 108.278ZM25.0213 109C25.7543 109 26.0543 109.3 25.6883 109.667C25.3213 110.033 24.7213 110.033 24.3543 109.667C23.9884 109.3 24.2885 109 25.0213 109ZM139.438 109.079C140.492 109.036 141.083 109.272 140.751 109.604C140.419 109.936 139.556 109.972 138.835 109.683C138.037 109.364 138.274 109.127 139.438 109.079ZM81.0214 104.131C78.2975 103.948 76.3703 105.749 77.7792 107.158C78.7681 108.147 79.0213 108.069 79.0214 106.773C79.0214 105.88 79.8085 104.942 80.7714 104.689C82.0114 104.365 82.0844 104.203 81.0214 104.131ZM179.021 98.5254C181.248 97.2754 183.703 97.2892 187.833 98.5762C194.644 100.698 181.288 107.578 171.271 107.106C166.498 106.881 169.087 100.032 173.972 99.9648C175.375 99.9448 177.646 99.2973 179.021 98.5254ZM99.0214 102.699C99.0214 100.115 97.6394 100.048 95.7714 102.541C93.9465 104.976 93.4845 107.023 94.7714 106.968C96.3443 106.902 99.0211 104.212 99.0214 102.699ZM124.463 105C126.219 105 126.478 105.6 125.091 106.457C124.579 106.774 123.877 106.575 123.531 106.016C123.187 105.457 123.606 105 124.463 105ZM35.0213 86.0312C35.0213 85.4993 35.6964 85.3218 36.5213 85.6377C38.4853 86.3917 38.4153 88.4885 36.2713 93.1475C34.5274 96.9361 33.1051 97.5215 26.2713 97.2686C25.5844 97.2427 25.0213 97.8474 25.0213 98.6113C25.021 99.3752 24.1211 100 23.0213 100C21.9104 99.9999 21.0213 99.333 21.0213 98.5C21.0213 97.675 20.3833 97 19.6033 97C18.8233 97 17.4733 96.7266 16.6033 96.3926C15.5656 95.9948 15.0214 96.338 15.0213 97.3926C15.0213 98.2765 15.4714 98.9999 16.0213 99C17.3242 99 17.3087 101.313 15.9979 102.624C14.6899 103.932 3.04729 102.168 1.27129 100.393C-0.71939 98.4015 -0.2842 95 1.9627 95C2.96388 94.9999 4.03758 94.6041 4.44805 94.1016L4.59453 93.8984C5.00329 93.3958 6.06317 93 7.04571 93C8.09365 92.9998 9.43233 92.0999 10.0213 91C11.4283 88.37 13.8142 88.4661 16.2762 91.25C18.2662 93.5 18.2666 93.4999 17.5506 91.1689C16.8656 88.937 17.0316 88.8501 21.4276 89.1201C24.0405 89.2811 26.5365 88.8851 27.2205 88.2012C27.8805 87.5412 29.9065 87 31.7215 87C33.5362 87 35.0209 86.5641 35.0213 86.0312ZM112.521 100C112.246 100 112.021 100.225 112.021 100.5C112.021 100.775 112.246 101 112.521 101C112.796 101 113.021 100.775 113.021 100.5C113.021 100.225 112.796 100 112.521 100ZM19.0213 99C19.7543 99 20.0543 99.3 19.6883 99.667C19.3213 100.033 18.7213 100.033 18.3543 99.667C17.9884 99.3 18.2885 99 19.0213 99ZM62.1395 96.9268C63.6565 95.9889 65.2947 96.7504 64.5057 98.0254C64.2046 98.5132 63.259 98.6453 62.4051 98.3174C61.1933 97.8524 61.1356 97.5477 62.1395 96.9268ZM117.021 97.1582C115.647 97.1582 115.085 97.3851 115.771 97.6621C116.459 97.9401 117.584 97.94 118.271 97.6621C118.959 97.3851 118.396 97.1582 117.021 97.1582ZM159.596 85.667C160.391 83.5951 162.378 83.5201 164.021 85.5C164.706 86.325 166.064 87 167.037 87C171.513 87.0006 169.141 96.0116 164.468 96.7598C153.21 98.5598 145.258 95.154 151.021 91C152.121 90.2072 153.021 88.9995 153.021 88.3145C153.021 86.3925 156.497 84.8749 157.836 86.2139C158.663 87.0408 159.124 86.8979 159.596 85.667ZM111.021 89C111.571 89 112.021 89.675 112.021 90.5C112.021 91.325 111.571 92 111.021 92C110.471 91.9999 110.021 91.3249 110.021 90.5C110.021 89.6751 110.471 89.0001 111.021 89ZM113.644 88.54C114.484 86.35 116.446 87.1401 116.842 89.8281C117.082 91.461 116.647 92 115.092 92C112.925 92 112.607 91.242 113.644 88.54ZM123.598 84.75C124.706 83.653 125.021 83.82 125.021 85.5C125.021 86.325 124.35 87 123.529 87C122.709 87.0002 121.477 87.9002 120.79 89C119.025 91.827 117.887 91.4809 118.325 88.25C118.596 86.255 119.267 85.5 120.769 85.5C121.908 85.5 123.182 85.162 123.598 84.75ZM49.9627 86C50.5446 86.0001 51.0213 86.4501 51.0213 87C51.0213 87.5497 50.8237 87.9995 50.5809 88C50.3379 88 49.8613 87.55 49.5213 87C49.1814 86.45 49.3808 86 49.9627 86ZM14.0213 86C14.0213 85.267 14.3213 84.9671 14.6883 85.333C15.0543 85.7 15.0543 86.3 14.6883 86.667C14.3213 87.0329 14.0213 86.733 14.0213 86ZM2.02129 81.8779C2.0213 80.104 2.26838 79.9601 3.52129 81C4.34629 81.685 5.02129 82.6401 5.02129 83.1221C5.02122 83.605 4.34625 84 3.52129 84C2.65936 83.9999 2.02129 83.0979 2.02129 81.8779ZM26.0213 71.5C28.2323 67.37 38.0213 67.7333 38.0213 71.9463C38.0209 74.9521 32.041 75.9837 28.2391 73.6348C27.4323 73.1361 27.0213 73.5776 27.0213 74.9414C27.0212 76.3331 26.3732 77 25.0213 77C23.9104 76.9999 23.0213 76.333 23.0213 75.5C23.0213 74.675 23.3954 74.0001 23.8524 74C24.3094 74 25.2853 72.875 26.0213 71.5ZM20.0213 76C20.7543 76 21.0543 76.3 20.6883 76.667C20.3213 77.0329 19.7213 77.033 19.3543 76.667C18.9884 76.3 19.2885 76 20.0213 76ZM122.521 74C122.796 74 123.021 74.225 123.021 74.5C123.021 74.775 122.796 75 122.521 75C122.246 74.9999 122.021 74.775 122.021 74.5C122.021 74.225 122.246 74.0001 122.521 74ZM134.021 73C133.471 73.0001 133.021 73.45 133.021 74C133.021 74.55 133.471 74.9999 134.021 75C134.571 75 135.021 74.55 135.021 74C135.021 73.45 134.571 73 134.021 73ZM138.521 74C138.246 74.0001 138.021 74.225 138.021 74.5C138.021 74.775 138.246 74.9999 138.521 75C138.796 75 139.021 74.775 139.021 74.5C139.021 74.225 138.796 74 138.521 74ZM145.521 74C145.246 74.0001 145.021 74.225 145.021 74.5C145.021 74.775 145.246 74.9999 145.521 75C145.796 75 146.021 74.775 146.021 74.5C146.021 74.225 145.796 74 145.521 74ZM40.1004 67.583C40.0574 66.529 40.2938 65.9395 40.6258 66.2715C40.9574 66.6038 40.9938 67.4668 40.7049 68.1885C40.386 68.9852 40.1484 68.7479 40.1004 67.583ZM68.0213 67C68.0213 66.267 68.3214 65.9671 68.6883 66.333C69.0543 66.7 69.0543 67.3 68.6883 67.667C68.3214 68.0329 68.0213 67.733 68.0213 67ZM72.0213 66C73.9083 64.78 74.0213 64.78 74.0213 66C74.0213 66.55 73.2343 66.9934 72.2713 66.9854C70.7755 66.9723 70.7395 66.8279 72.0213 66ZM65.5213 64C66.3463 64 67.0213 64.45 67.0213 65C67.0213 65.55 66.3463 66 65.5213 66C64.6964 65.9999 64.0213 65.55 64.0213 65C64.0213 64.45 64.6964 64.0001 65.5213 64ZM120.021 63C120.754 63 121.054 63.3 120.688 63.667C120.321 64.0329 119.721 64.033 119.354 63.667C118.989 63.3 119.289 63 120.021 63ZM46.2713 57.8096C50.5383 55.7746 52.5133 55.6832 53.9813 57.4521C57.2072 61.3391 51.5065 65.2723 45.9705 62.9795C42.1395 61.3925 42.2363 59.7356 46.2713 57.8096ZM135.021 54.8779C135.021 54.102 135.485 54.1401 136.521 55C139.8 57.721 138.48 60.3449 133.271 61.4619C130.158 62.1299 130.021 62.03 130.021 59.0791C130.021 56.4612 130.397 56 132.521 56C133.896 56 135.021 55.4949 135.021 54.8779ZM152.021 46.9736C158.366 42.7618 163.482 47.6467 158.176 52.8486C155.232 55.7346 154.478 57.0559 155.303 57.8809C156.128 58.7058 155.976 59 154.722 59C153.787 59 153.021 58.325 153.021 57.5C153.021 56.675 152.764 56 152.45 56C152.135 56.0006 151.203 56.6754 150.379 57.5C149.554 58.3248 149.361 58.9997 149.95 59C150.539 59 151.021 59.45 151.021 60C151.021 60.55 150.346 61 149.521 61C148.697 60.9999 148.021 60.136 148.021 59.0791C148.021 57.0711 143.075 55.2314 141.046 56.4854C140.483 56.8333 140.022 56.3631 140.021 55.4414C140.021 53.2424 145.963 48.0412 148.521 48.001C149.621 47.983 151.196 47.5206 152.021 46.9736ZM95.0702 55.9277C98.2362 53.4947 103.573 53.3892 104.475 55.7412C105.998 59.7081 96.8392 62.8952 93.9432 59.4062C92.8132 58.0453 92.9783 57.5357 95.0702 55.9277ZM125.021 60C125.021 59.267 125.321 58.9671 125.688 59.333C126.054 59.7 126.054 60.3 125.688 60.667C125.321 61.0329 125.021 60.733 125.021 60ZM182.165 51.4932C187.071 49.9623 187.553 49.9289 190.965 50.8809C193.496 51.588 190.594 55.9885 187.583 56.0059C187 56.0099 185.175 56.7143 183.53 57.5723C181.656 58.549 179.355 58.9099 177.373 58.5381C175.269 58.1431 174.034 58.3728 173.693 59.2217C173.343 60.0927 173.155 59.9978 173.101 58.9238C172.982 56.5418 177.281 53.0171 182.165 51.4932ZM19.5213 58C19.7963 58 20.0213 58.225 20.0213 58.5C20.0213 58.775 19.7963 59 19.5213 59C19.2464 58.9999 19.0213 58.775 19.0213 58.5C19.0213 58.225 19.2464 58.0001 19.5213 58ZM64.2713 55.7754C67.3253 55.2814 69.0213 55.9354 69.0213 57.6074C69.021 58.5321 67.846 59 65.5213 59C61.5325 58.9999 60.5186 56.3824 64.2713 55.7754ZM56.8993 54C58.3163 54 60.2481 56.8241 59.5751 57.9131C58.6109 59.4727 56.0213 58.0005 56.0213 55.8926C56.0214 54.8519 56.4164 54.0002 56.8993 54ZM120.47 47.5811C127.854 45.0661 130.021 45.1502 130.021 47.9521C130.021 50.376 126.658 53.1806 124.667 52.417C123.461 51.955 123.021 52.3489 123.021 53.8926C123.021 56.0416 121.595 56.737 120.574 55.085C120.263 54.582 120.575 53.943 121.266 53.6641C121.957 53.3861 121.456 53.1221 120.154 53.0791C118.265 53.0162 117.893 53.4031 118.311 55C118.598 56.0997 118.479 56.9996 118.045 57C117.611 57 117.019 56.1 116.731 55C116.444 53.9 115.491 53 114.615 53C113.396 52.9994 112.107 50.0948 113.271 49.9736C113.408 49.9596 116.649 48.8831 120.47 47.5811ZM107.021 53C107.754 53 108.054 53.3 107.688 53.667C107.321 54.0329 106.721 54.033 106.354 53.667C105.989 53.3 106.289 53 107.021 53ZM130.1 52.583C130.057 51.529 130.294 50.9395 130.626 51.2715C130.958 51.6038 130.994 52.4668 130.705 53.1885C130.386 53.9852 130.148 53.7479 130.1 52.583ZM135.021 52C135.021 51.267 135.321 50.9671 135.688 51.333C136.054 51.7 136.054 52.3 135.688 52.667C135.321 53.0329 135.021 52.733 135.021 52ZM87.0214 42.917C87.0214 42.321 87.3594 41.9982 87.7714 42.1992C88.1833 42.4002 89.8354 43.2186 91.4423 44.0195C93.696 45.1434 94.4562 45.194 94.7753 44.2383C95.3372 42.5524 97.0211 42.667 97.0214 44.3916C97.0214 45.8806 92.7001 47.469 89.6971 47.084C88.5705 46.9392 87.6661 47.647 87.329 48.9355C86.674 51.4375 83.3136 52.4367 77.9618 51.7188C75.7948 51.4277 74.0213 51.5835 74.0213 52.0645C74.0209 52.5441 73.3328 52.6725 72.4921 52.3496C71.1825 51.8477 71.1669 51.5997 72.3778 50.6318C73.1547 50.0088 73.9713 48.8894 74.1913 48.1445C74.6383 46.6345 81.2896 44.0377 84.7714 44.0146C86.0094 44.0066 87.0214 43.512 87.0214 42.917ZM52.8426 44.1094C53.4636 43.8995 56.0211 46.8667 56.0213 47.7979C56.0213 49.1318 49.3329 50.051 46.7137 49.0771C44.6727 48.3182 44.7975 48.1221 48.5213 46.2402C50.7213 45.1282 52.6666 44.1694 52.8426 44.1094ZM102.521 46C102.796 46 103.021 46.675 103.021 47.5C103.021 48.556 102.06 48.9556 99.7714 48.8496C96.7466 48.7106 96.7116 48.6712 99.2714 48.2842C100.783 48.0552 102.021 47.4466 102.021 46.9336C102.021 46.4199 102.247 46.0001 102.521 46ZM66.0213 47C66.0213 46.267 66.3214 45.9671 66.6883 46.333C67.0543 46.7 67.0543 47.3 66.6883 47.667C66.3214 48.0329 66.0213 47.733 66.0213 47ZM143.021 43C143.021 42.267 143.321 41.9671 143.688 42.333C144.054 42.7 144.054 43.3 143.688 43.667C143.321 44.0329 143.021 43.733 143.021 43ZM148.101 41.583C148.058 40.529 148.294 39.9395 148.626 40.2715C148.958 40.6038 148.994 41.4668 148.705 42.1885C148.386 42.9852 148.149 42.7479 148.101 41.583ZM112.521 38C112.796 38 113.021 38.225 113.021 38.5C113.021 38.775 112.796 39 112.521 39C112.246 38.9999 112.021 38.775 112.021 38.5C112.021 38.225 112.246 38.0001 112.521 38ZM132.521 32.54C139.852 31.127 140.094 31.2704 136.575 34.9434C133.392 38.2661 127.329 39.7699 124.097 38.04C119.944 35.8181 121.8 34.606 132.521 32.54ZM116.021 36C116.571 36 117.021 36.45 117.021 37C117.021 37.55 116.571 38 116.021 38C115.471 37.9999 115.021 37.55 115.021 37C115.021 36.45 115.471 36.0001 116.021 36ZM100.586 27.5527C105.684 25.025 113.021 24.1641 113.021 26.0938C113.021 26.6947 112.121 27.423 111.021 27.71C109.921 27.998 109.021 28.6312 109.021 29.1172C109.021 29.602 108.299 29.9999 107.416 30C106.533 30 104.445 31.1478 102.777 32.5518C98.7922 35.9047 92.6961 35.731 92.201 32.25C91.9671 30.6 92.3845 30 93.7655 30C94.8015 30 97.8708 28.8987 100.586 27.5527ZM47.5213 33C47.7963 33 48.0213 33.225 48.0213 33.5C48.0213 33.775 47.7963 34 47.5213 34C47.2464 33.9999 47.0213 33.775 47.0213 33.5C47.0213 33.225 47.2464 33.0001 47.5213 33ZM151.521 33C151.796 33 152.021 33.225 152.021 33.5C152.021 33.775 151.796 34 151.521 34C151.246 33.9999 151.021 33.775 151.021 33.5C151.021 33.225 151.246 33.0001 151.521 33ZM114.581 31C114.824 31.0005 115.021 31.4503 115.021 32C115.021 32.5499 114.545 32.9999 113.963 33C113.381 33 113.181 32.55 113.521 32C113.861 31.45 114.338 31 114.581 31ZM117.463 29C117.706 29.0003 118.182 29.4502 118.521 30C118.861 30.5499 118.663 30.9998 118.081 31C117.499 31 117.021 30.55 117.021 30C117.021 29.45 117.22 29 117.463 29ZM168.771 22.3047C175.383 20.8718 175.816 20.8602 176.577 22.0898C176.982 22.7458 178.597 22.9269 180.637 22.5439C184.765 21.77 185.579 24.5709 181.521 25.5889C180.146 25.9339 179.021 26.6184 179.021 27.1084C179.02 27.5992 176.186 28 172.722 28C169.257 28 165.915 28.507 165.295 29.127C163.549 30.8728 159.022 29.3242 159.021 26.9814C159.021 25.5355 159.697 25 161.521 25C162.896 25 164.021 24.625 164.021 24.168C164.022 23.71 166.159 22.8717 168.771 22.3047ZM81.5214 27C81.7964 27 82.0214 27.225 82.0214 27.5C82.0214 27.775 81.7964 28 81.5214 28C81.2464 27.9999 81.0214 27.775 81.0214 27.5C81.0214 27.225 81.2464 27.0001 81.5214 27ZM85.5214 26C86.3464 26 87.0214 26.45 87.0214 27C87.0214 27.55 86.3464 28 85.5214 28C84.6964 28 84.0214 27.55 84.0214 27C84.0214 26.45 84.6964 26 85.5214 26ZM117.021 23C117.571 23 118.021 23.7018 118.021 24.5586C118.021 25.4156 117.571 25.84 117.021 25.5C116.472 25.1601 116.022 24.4593 116.021 23.9414C116.021 23.4234 116.471 23.0001 117.021 23ZM148.899 10.417C152.622 9.20399 162.635 8.85869 159.402 10.0547C158.329 10.4517 156.858 11.4922 156.132 12.3672C154.303 14.5712 149.183 17 146.367 17C145.077 17.0001 144.021 17.4643 144.021 18.0312C144.022 19.5551 147.334 20.5626 147.795 19.1797C148.012 18.5309 148.857 18 149.675 18C152.174 18.0002 150.879 22.4493 148.271 22.8203C147.033 22.9953 146.021 23.5583 146.021 24.0703C146.021 24.5812 145.346 25 144.521 25C143.696 25 143.021 24.55 143.021 24C143.021 22.773 138.348 22.6621 137.601 23.8711C136.441 25.748 130.829 25.9986 127.957 24.3018C124.233 22.1028 125.763 20 131.085 20C133.121 20 135.058 19.5774 135.485 19.0508L135.594 18.8984C135.998 18.3957 137.02 18 137.959 18C138.959 17.9998 140.346 17.3135 141.042 16.4756C141.738 15.6382 142.539 15.1855 142.824 15.4697C143.109 15.7547 143.845 14.9781 144.459 13.7441C145.072 12.5102 147.07 11.013 148.899 10.417ZM75.2713 22.2197C77.9762 20.9158 81.021 20.693 81.0214 21.7998C81.0214 23.4608 78.5202 25 75.8212 25C72.4465 24.9999 72.1905 23.7057 75.2713 22.2197ZM121.581 23C122.438 23.0001 122.861 23.4501 122.521 24C122.181 24.5499 121.481 24.9998 120.963 25C120.445 25 120.021 24.55 120.021 24C120.021 23.45 120.724 23 121.581 23ZM88.5214 20C89.3462 20 90.0212 20.4359 90.0214 20.9688C90.0214 21.5007 89.3464 21.6783 88.5214 21.3623C87.6964 21.0453 87.0214 20.6086 87.0214 20.3926C87.0222 20.1768 87.697 20 88.5214 20ZM84.0214 20C84.0214 19.267 84.3214 18.9671 84.6883 19.333C85.0544 19.7 85.0544 20.3 84.6883 20.667C84.3214 21.0329 84.0214 20.733 84.0214 20ZM56.0213 15C57.9042 15 58.7403 16.9477 57.4237 18.2637C56.4507 19.2377 54.0213 17.9006 54.0213 16.3926C54.0217 15.6268 54.9216 15.0001 56.0213 15ZM51.5213 17C51.7963 17 52.0213 17.225 52.0213 17.5C52.0213 17.775 51.7963 18 51.5213 18C51.2464 17.9999 51.0213 17.775 51.0213 17.5C51.0213 17.225 51.2464 17.0001 51.5213 17ZM122.021 5.1709C128.602 3.354 131.639 3.65998 129.583 5.93262C128.621 6.99461 127.259 7.64499 126.557 7.375C125.855 7.106 125.011 7.58636 124.682 8.44336C124.007 10.2031 126.143 10.5405 128.838 9.09863C131.965 7.42494 140.02 6.64721 140.021 8.01758C140.021 14.6486 125.731 19.1857 121.267 13.9727C120.337 12.8877 118.747 12 117.733 12C112.292 11.9999 110.758 7.68486 115.839 6.67188C117.315 6.37785 120.097 5.70286 122.021 5.1709ZM101.521 4.14258C106.936 2.87558 106.83 2.88016 107.467 3.91016C108.708 5.92136 100.929 12.2569 96.6571 12.7139C91.8366 13.2297 88.5528 11.3851 89.5702 8.7334C90.1942 7.1064 92.2794 6.30557 101.521 4.14258ZM98.0214 0C98.5714 0 99.0214 0.45 99.0214 1C99.0214 1.55 98.5714 2 98.0214 2C97.4714 1.99993 97.0214 1.54995 97.0214 1C97.0214 0.450046 97.4714 7.48993e-05 98.0214 0Z" fill="#FFBFCD" fill-opacity="0.75"/>
</g>
<path id="stroke0_2080_33_ref" d="M43.3041 47.0663C43.4076 46.4163 44.754 43.0901 47.3408 38.8764C50.4727 33.7748 52.0685 31.9353 53.5202 29.9071C55.254 27.4846 57.2298 24.2469 59.5974 21.0392C60.1112 20.3431 60.3662 19.6858 60.3035 19.6377C58.7494 18.4434 53.4455 26.2723 48.0258 32.4022C45.9772 34.7193 45.57 37.3984 43.7763 38.7989C40.9237 41.0262 38.043 38.2304 35.7255 37.0423C33.6092 35.9573 32.3288 32.1578 29.9105 28.7522C27.1526 24.8683 24.456 22.5085 23.9827 21.4797C23.4143 20.2442 23.2467 18.8418 23.5621 17.8491C23.7066 17.3942 24.556 17.483 25.1677 17.5791C27.7891 17.9907 30.9465 23.4359 35.4133 28.8815C39.154 33.4419 39.8075 36.04 40.2617 38.553C40.3808 39.2123 40.3222 39.8866 40.1222 40.0775C37.778 42.3154 32.0697 34.0596 28.4202 30.5224C25.6473 27.8348 22.8745 26.3781 17.3512 24.4684C15.1032 23.6911 16.5274 29.0951 17.0575 30.6113C18.672 35.2283 24.4399 40.3965 29.5791 44.5898C32.833 47.2447 38.0154 49.3912 40.579 49.9779C42.3827 50.3906 44.2298 50.4735 46.0413 49.7346C49.043 48.5103 51.6495 43.6308 55.4189 39.0367C61.8943 31.1445 64.4592 27.7475 66.3186 21.659C66.7491 20.2494 66.7123 19.5308 66.553 19.0006C66.3938 18.4704 66.0355 18.1283 65.5927 17.8844C65.1499 17.6405 64.6334 17.5051 64.0735 17.475C58.8361 17.1936 51.858 25.1544 47.72 30.2363C46.8505 31.3042 46.5663 31.798 46.2969 31.807C46.0276 31.8159 45.8189 31.3548 45.9403 30.7371C46.6104 27.3293 54.275 21.8688 59.9898 15.9769C63.2327 12.6334 65.0127 10.6632 67.7578 9.92592C69.6 9.43118 71.2586 10.2673 72.2438 11.2678C74.3731 13.43 74.2872 17.6524 74.2839 22.9414C74.2814 26.9896 70.1423 33.4969 64.2728 39.4497C60.9147 42.8556 56.4479 44.1075 51.0403 45.8303C47.3687 46.9999 41.708 48.4141 38.5939 48.9962C35.4798 49.5783 35.0568 49.1947 34.7254 45.2498C33.7669 33.8375 33.7474 25.5419 33.3202 24.3696C32.3207 21.6262 30.5329 19.1987 29.1933 17.1874C27.8206 15.1264 25.6349 13.8616 23.1923 13.2106C20.8949 12.5983 18.6611 13.3148 17.4282 13.8094C15.2924 14.6662 13.7784 17.7982 12.1434 21.3363C10.312 25.2994 11.6506 32.0291 13.9124 36.4783C16.748 42.0561 21.3195 46.2398 24.563 49.2292C31.3732 55.5058 36.3422 57.5755 38.6597 58.2954C39.6473 58.6022 40.6428 58.7816 41.5831 58.7794C42.4679 58.4452 42.9955 57.5727 46.0813 53.882C49.0774 50.8054 54.9772 45.2849 61.6373 38.6695"/>
</defs>
</svg>
